REM DIRINDEX 1\2,1\3,1\4,1\5
REM DIRNAME folder01,folder02,folder03,folder04,folder05
TITLE ""
FILE "1800_090.mp3" MP3
  TRACK 01 AUDIO
    TITLE "2:cjc044_2417"
    INDEX 01 00:00:00
  TRACK 02 AUDIO
    TITLE "0:"
    INDEX 01 00:00:72
  TRACK 03 AUDIO
    TITLE "3:cjc044_2418"
    INDEX 01 00:01:54
  TRACK 04 AUDIO
    TITLE "0:"
    INDEX 01 00:02:55
  TRACK 05 AUDIO
    TITLE "4:cjc044_2419"
    INDEX 01 00:03:37
  TRACK 06 AUDIO
    TITLE "0:"
    INDEX 01 00:04:44
  TRACK 07 AUDIO
    TITLE "5:cjc044_2420"
    INDEX 01 00:05:16
  TRACK 08 AUDIO
    TITLE "0:"
    INDEX 01 00:08:60
  TRACK 09 AUDIO
    TITLE "2:cjc044_2421"
    INDEX 01 00:10:43
  TRACK 10 AUDIO
    TITLE "0:"
    INDEX 01 00:11:58
  TRACK 11 AUDIO
    TITLE "3:cjc044_2422"
    INDEX 01 00:12:42
  TRACK 12 AUDIO
    TITLE "0:"
    INDEX 01 00:13:35
  TRACK 13 AUDIO
    TITLE "4:cjc044_2423"
    INDEX 01 00:14:17
  TRACK 14 AUDIO
    TITLE "0:"
    INDEX 01 00:15:34
  TRACK 15 AUDIO
    TITLE "5:cjc044_2424"
    INDEX 01 00:16:08
  TRACK 16 AUDIO
    TITLE "0:"
    INDEX 01 00:18:70
  TRACK 17 AUDIO
    TITLE "2:cjc044_2425"
    INDEX 01 00:20:55
  TRACK 18 AUDIO
    TITLE "0:"
    INDEX 01 00:21:45
  TRACK 19 AUDIO
    TITLE "3:cjc044_2426"
    INDEX 01 00:22:29
  TRACK 20 AUDIO
    TITLE "0:"
    INDEX 01 00:23:26
  TRACK 21 AUDIO
    TITLE "4:cjc044_2427"
    INDEX 01 00:24:10
  TRACK 22 AUDIO
    TITLE "0:"
    INDEX 01 00:25:09
  TRACK 23 AUDIO
    TITLE "5:cjc044_2428"
    INDEX 01 00:25:58
  TRACK 24 AUDIO
    TITLE "0:"
    INDEX 01 00:28:49
  TRACK 25 AUDIO
    TITLE "2:cjc044_2429"
    INDEX 01 00:30:30
  TRACK 26 AUDIO
    TITLE "0:"
    INDEX 01 00:31:35
  TRACK 27 AUDIO
    TITLE "3:cjc044_2430"
    INDEX 01 00:32:25
  TRACK 28 AUDIO
    TITLE "0:"
    INDEX 01 00:33:34
  TRACK 29 AUDIO
    TITLE "4:cjc044_2431"
    INDEX 01 00:34:20
  TRACK 30 AUDIO
    TITLE "0:"
    INDEX 01 00:35:23
  TRACK 31 AUDIO
    TITLE "5:cjc044_2432"
    INDEX 01 00:35:74
  TRACK 32 AUDIO
    TITLE "0:"
    INDEX 01 00:38:41
  TRACK 33 AUDIO
    TITLE "2:cjc044_2433"
    INDEX 01 00:40:23
  TRACK 34 AUDIO
    TITLE "0:"
    INDEX 01 00:41:53
  TRACK 35 AUDIO
    TITLE "3:cjc044_2434"
    INDEX 01 00:42:37
  TRACK 36 AUDIO
    TITLE "0:"
    INDEX 01 00:43:64
  TRACK 37 AUDIO
    TITLE "4:cjc044_2435"
    INDEX 01 00:44:44
  TRACK 38 AUDIO
    TITLE "0:"
    INDEX 01 00:45:73
  TRACK 39 AUDIO
    TITLE "5:cjc044_2436"
    INDEX 01 00:46:58
  TRACK 40 AUDIO
    TITLE "0:"
    INDEX 01 00:50:21
  TRACK 41 AUDIO
    TITLE "2:cjc044_2437"
    INDEX 01 00:52:04
  TRACK 42 AUDIO
    TITLE "0:"
    INDEX 01 00:53:15
  TRACK 43 AUDIO
    TITLE "3:cjc044_2438"
    INDEX 01 00:53:68
  TRACK 44 AUDIO
    TITLE "0:"
    INDEX 01 00:55:06
  TRACK 45 AUDIO
    TITLE "4:cjc044_2439"
    INDEX 01 00:55:61
  TRACK 46 AUDIO
    TITLE "0:"
    INDEX 01 00:56:72
  TRACK 47 AUDIO
    TITLE "5:cjc044_2440"
    INDEX 01 00:57:54
  TRACK 48 AUDIO
    TITLE "0:"
    INDEX 01 01:01:27
  TRACK 49 AUDIO
    TITLE "2:cjc044_2441"
    INDEX 01 01:03:06
  TRACK 50 AUDIO
    TITLE "0:"
    INDEX 01 01:04:15
  TRACK 51 AUDIO
    TITLE "3:cjc044_2442"
    INDEX 01 01:05:01
  TRACK 52 AUDIO
    TITLE "0:"
    INDEX 01 01:06:02
  TRACK 53 AUDIO
    TITLE "4:cjc044_2443"
    INDEX 01 01:06:59
  TRACK 54 AUDIO
    TITLE "0:"
    INDEX 01 01:07:68
  TRACK 55 AUDIO
    TITLE "5:cjc044_2444"
    INDEX 01 01:08:56
  TRACK 56 AUDIO
    TITLE "0:"
    INDEX 01 01:12:68
  TRACK 57 AUDIO
    TITLE "2:cjc044_2445"
    INDEX 01 01:14:55
  TRACK 58 AUDIO
    TITLE "0:"
    INDEX 01 01:16:03
  TRACK 59 AUDIO
    TITLE "3:cjc044_2446"
    INDEX 01 01:16:52
  TRACK 60 AUDIO
    TITLE "0:"
    INDEX 01 01:18:23
  TRACK 61 AUDIO
    TITLE "4:cjc044_2447"
    INDEX 01 01:19:05
  TRACK 62 AUDIO
    TITLE "0:"
    INDEX 01 01:20:28
  TRACK 63 AUDIO
    TITLE "5:cjc044_2448"
    INDEX 01 01:21:06
  TRACK 64 AUDIO
    TITLE "0:"
    INDEX 01 01:24:47
  TRACK 65 AUDIO
    TITLE "2:cjc044_2449"
    INDEX 01 01:26:32
  TRACK 66 AUDIO
    TITLE "0:"
    INDEX 01 01:27:55
  TRACK 67 AUDIO
    TITLE "3:cjc044_2450"
    INDEX 01 01:28:41
  TRACK 68 AUDIO
    TITLE "0:"
    INDEX 01 01:29:31
  TRACK 69 AUDIO
    TITLE "4:cjc044_2451"
    INDEX 01 01:30:15
  TRACK 70 AUDIO
    TITLE "0:"
    INDEX 01 01:31:38
  TRACK 71 AUDIO
    TITLE "5:cjc044_2452"
    INDEX 01 01:32:10
  TRACK 72 AUDIO
    TITLE "0:"
    INDEX 01 01:35:16
